<?xml version="1.0" encoding="utf-8"?>
<!-- Generator: Adobe Illustrator 16.0.0, SVG Export Plug-In . SVG Version: 6.00 Build 0)  -->
<!DOCTYPE svg PUBLIC "-//W3C//DTD SVG 1.1//EN" "http://www.w3.org/Graphics/SVG/1.1/DTD/svg11.dtd">
<svg version="1.1" id="Layer_1" xmlns="http://www.w3.org/2000/svg" xmlns:xlink="http://www.w3.org/1999/xlink" x="0px" y="0px"
	 width="2290.531px" height="284.715px" viewBox="0 0 2290.531 284.715" enable-background="new 0 0 2290.531 284.715"
	 xml:space="preserve">
<path fill="#353F52" d="M2185.717,133.717c-2.427-8.679-4.112-17.939-5.141-24.586l31.919-4.7c0,0-21.086-7.983-32.688-15.645
	l29.823-4.391c0,0-15.897-6.015-27.679-12.616l25.437-3.745c0,0-19.473-7.375-31.291-14.752l27.557-4.056
	c0,0-23.211-7.76-39.287-21.406c0,0-16.637,26.051-31.848,31.877l29.369-4.321c-6.224,8.133-16.197,19.517-25.628,23.129
	l25.499-3.752c-6.214,7.708-14.946,16.929-23.26,20.113l29.435-4.333c-6.123,8.168-16.647,20.568-26.57,24.37l30.917-4.551
	c2.005,14.116,2.604,22.491,2.637,27.461c-32.697,12.745-64.676,28.268-95.737,44.203c-2.895-8.126-5.149-16.702-6.623-22.949
	l31.455-7.175c0,0-21.646-6.314-33.81-13.046l29.391-6.705c0,0-16.319-4.757-28.58-10.418l25.069-5.719
	c0,0-19.99-5.834-32.349-12.266l27.157-6.193c0,0-28.249-6.399-40.837-18.276c0,0-14.554,27.27-29.265,34.265l28.944-6.599
	c-5.571,8.593-14.627,20.721-23.748,25.058l25.13-5.73c-5.595,8.169-13.58,18.044-21.62,21.866l29.007-6.615
	c-5.468,8.621-14.993,21.804-24.589,26.368l30.467-6.949c2.924,13.121,4.204,21.259,4.694,26.298
	c-13.374,6.933-26.573,13.894-39.578,20.691c-11.67,6.491-23.671,11.852-35.92,16.166c-6.415,2.26-12.902,4.217-19.441,5.916
	c-3.052-7.289-5.222-16.673-6.441-22.839l22.193-4.219c0,0-14.985-4.971-23.325-9.992l20.736-3.941c0,0-11.297-3.746-19.731-8.019
	l17.687-3.362c0,0-13.839-4.593-22.322-9.409l19.16-3.641c0,0-18.205-3.905-28.107-13.83c0,0-10.88,18.71-21.353,23.23l20.422-3.88
	c-4.118,5.871-10.763,14.127-17.256,16.928l17.73-3.368c-4.123,5.574-9.964,12.278-15.687,14.749l20.466-3.891
	c-4.046,5.895-11.046,14.876-17.878,17.824l21.496-4.085c3.785,20.479,2.565,23.683,2.281,24.121
	c-53.005,11.471-109.199,5.676-162.169-10.475c-13.976-3.781-27.888-7.902-41.751-12.09c-13.862-4.192-27.676-8.449-41.452-12.559
	c-10.896-3.323-21.55-6.652-31.852-9.935c-12.998-3.851-25.81-7.988-38.527-12.295s-25.342-8.782-37.99-13.307
	c-30.652-11.557-61.698-23.926-93.409-31.801c-1.214-7.929-0.936-17.905-0.545-24.345l22.538,1.533c0,0-13.239-8.601-20.038-15.568
	l21.059,1.432c0,0-9.982-6.481-17.062-12.75l17.962,1.222c0,0-12.227-7.944-19.215-14.749l19.457,1.325
	c0,0-21.021-13.652-23.695-20.491c0,0-15.258,15.349-26.534,17.073l20.739,1.412c-5.469,4.638-13.987,10.945-20.977,12.011
	l18.006,1.227c-5.399,4.351-12.746,9.36-18.909,10.302l20.785,1.414c-5.404,4.678-14.45,11.597-21.806,12.721l21.831,1.486
	c-1.062,14.531-2.356,20.26-3.17,22.513c-27.788-6.035-56.104-8.241-85.134-3.065c-9.631,1.172-18.751,2.785-27.265,4.661
	c-2.979-7.109-5.169-15.977-6.435-21.882l22.122-4.571c0,0-15.061-4.732-23.479-9.621l20.671-4.27c0,0-11.356-3.564-19.857-7.704
	l17.632-3.643c0,0-13.91-4.373-22.469-9.053l19.1-3.945c0,0-16.75-4.918-28.324-13.381c0,0-10.58,18.881-20.98,23.566l20.356-4.204
	c-4.022,5.935-10.536,14.296-16.983,17.2l17.675-3.65c-4.034,5.64-9.768,12.437-15.451,14.998l20.401-4.216
	c-3.951,5.958-10.808,15.05-17.592,18.106l21.429-4.428c3.027,15.035,3.19,20.743,2.956,22.887
	c-5.223,1.328-10.178,2.738-14.83,4.184c-28.971,9.002-46.357,19.349-46.357,19.349c-27-32-67-51.833-100.25-63.667
	c-7.369-2.623-14.403-4.85-20.895-6.732c0.043-6.307,1.47-13.984,2.556-18.926l17.374,3.955c0,0-9.262-8.322-13.707-14.584
	l16.233,3.695c0,0-6.985-6.272-11.733-12.023l13.846,3.152c0,0-8.554-7.687-13.167-13.845l14.999,3.414
	c0,0-11.068-7.572-15.953-18.867c0,0-13.768,10.092-22.765,10.055l15.985,3.639c-4.828,2.943-12.237,6.815-17.814,6.791l13.88,3.161
	c-4.74,2.729-11.078,5.732-15.995,5.711l16.021,3.647c-4.783,2.983-12.679,7.267-18.547,7.242l16.828,3.83
	c-3.095,13.287-4.926,16.87-5.654,17.833c-5.114-1.367-9.771-2.497-13.836-3.416c-47.869-9.804-97.616-12.326-146.026-5.289
	c-1.988-6.785-3.118-14.979-3.7-20.455l20.882-2.065c0,0-13.451-5.839-20.753-11.176l19.511-1.93c0,0-10.143-4.399-17.594-9.051
	l16.644-1.647c0,0-12.424-5.394-19.875-10.551l18.027-1.784c0,0-14.215-5.806-24.859-15.12c0,0-11.612,16.41-21.676,19.726
	l19.213-1.901c-4.294,5.09-11.124,12.18-17.363,14.234l16.683-1.651c-4.276,4.818-10.235,10.54-15.734,12.35l19.256-1.906
	c-4.229,5.118-11.449,12.849-18.014,15.012l20.226-2.003c1.299,13.837,0.945,19.207,0.532,21.278
	c-18.519,3.141-36.814,7.696-54.7,13.827c-14.986,5.156-29.794,11.179-44.416,17.739c-29.244,13.121-57.71,28.393-85.953,43.18
	c-13.85,6.708-27.851,13.033-42.091,18.714s-28.72,10.718-43.525,14.851c-21.5,6.222-41.821,10.722-60.266,13.972
	c-1.27,0.224-2.521,0.435-3.772,0.647c-2.985-5.597-5.39-13.145-6.781-18.065l17.181-4.724c0,0-12.095-2.958-18.971-6.377
	l16.052-4.413c0,0-9.119-2.228-16.021-5.053l13.692-3.764c0,0-11.171-2.733-18.146-5.982l14.833-4.077
	c0,0-13.974-2.145-22.974-9.091c0,0-7.366,15.398-15.313,19.616l15.808-4.345c-2.864,4.876-7.566,11.788-12.493,14.402l13.726-3.772
	c-2.889,4.645-7.055,10.286-11.398,12.59l15.843-4.354c-2.807,4.889-7.741,12.395-12.924,15.145l16.641-4.574
	c3.308,12.276,3.602,16.603,3.476,18.102c-49.065,7.628-82.29,6.34-82.29,6.34c-85.875,0.462-219.386-34.247-293.37-55.634
	c-0.72-5.847-0.085-13.501,0.481-18.338l16.02,1.996c0,0-9.102-6.667-13.674-11.91l14.968,1.865c0,0-6.863-5.024-11.664-9.78
	l12.768,1.591c0,0-8.407-6.157-13.121-11.292l13.831,1.723c0,0-10.304-6.92-16.086-15.567c0,0-11.5,10.341-19.614,11.12
	l14.739,1.837c-4.086,3.09-10.417,7.249-15.448,7.732l12.799,1.595c-4.027,2.888-9.469,6.169-13.903,6.594l14.773,1.84
	c-4.043,3.121-10.774,7.696-16.066,8.205l15.517,1.933c-1.697,13.081-3.093,16.068-3.589,16.743
	c-28.657-8.383-46.692-14.251-46.692-14.251c-6.751-1.833-13.417-3.544-19.997-5.146c-1.065-6.403-1.188-14.005-1.113-19.063
	l19.236,0.427c0,0-11.598-6.801-17.654-12.465l17.972,0.398c0,0-8.744-5.125-15.013-10.183l15.33,0.341
	c0,0-10.713-6.283-16.924-11.8l16.606,0.369c0,0-12.184-5.413-20.957-16.512c0,0-12.383,13.653-21.909,15.559l17.697,0.394
	c-4.471,4.159-11.473,9.856-17.379,11.037l15.368,0.342c-4.425,3.912-10.48,8.46-15.686,9.502l17.737,0.394
	c-4.416,4.19-11.842,10.429-18.055,11.672l18.63,0.414c-0.26,9.541-0.839,14.651-1.368,17.392
	c-31.987-7.457-61.751-12.272-88.527-15.292c-1.471-9.772-1.639-21.02-1.526-28.617l30.291,0.673c0,0-18.263-10.71-27.8-19.629
	l28.3,0.629c0,0-13.769-8.072-23.641-16.036l24.141,0.536c0,0-16.87-9.894-26.65-18.581l26.15,0.581c0,0-18.668-8.869-33-26
	c0,0-19.5,21.5-34.5,24.5l27.868,0.619c-7.04,6.55-18.067,15.521-27.368,17.381l24.2,0.538c-6.968,6.16-16.503,13.321-24.7,14.962
	l27.931,0.62c-6.953,6.599-18.647,16.423-28.431,18.38l29.337,0.651c-0.416,15.245-1.348,23.309-2.19,27.577
	C49.739,102.67,0,110.338,0,110.338v174.377h2290.531V110.452C2254.984,113.775,2219.972,121.094,2185.717,133.717z"/>
</svg>
