<?xml version="1.0" encoding="utf-8"?>
<!-- Generator: Adobe Illustrator 16.0.0, SVG Export Plug-In . SVG Version: 6.00 Build 0)  -->
<!DOCTYPE svg PUBLIC "-//W3C//DTD SVG 1.1//EN" "http://www.w3.org/Graphics/SVG/1.1/DTD/svg11.dtd">
<svg version="1.1" id="Layer_1" xmlns="http://www.w3.org/2000/svg" xmlns:xlink="http://www.w3.org/1999/xlink" x="0px" y="0px"
	 width="333.805px" height="594.165px" viewBox="0 0 333.805 594.165" enable-background="new 0 0 333.805 594.165"
	 xml:space="preserve">
<g>
	<path fill="#31CCB0" d="M239.298,341.282c30.56,6.344,72.353,87.241,88.919,139.661c7.044,22.296,15.967,87.255-32.589,74.993
		s-28.421-52.762-22.593-83.908c5.83-31.146-13.792-100.592-34.979-117.266C216.871,338.089,239.298,341.282,239.298,341.282z"/>
	<path fill="#2EBFA7" d="M273.035,472.028c-4.676,24.99-18.555,56,1.223,73.616c22.395-10.277,26.622-40.728,26.622-40.728
		c2.429-40.102-10.513-118.613-54.317-148.575C256.371,383.05,276.561,453.192,273.035,472.028z"/>
	<g>
		<g>
			<g>
				<path fill="#F7FFF7" d="M101.539,300.903c0.988,0,0.988-1.533,0-1.533S100.551,300.903,101.539,300.903L101.539,300.903z"/>
			</g>
		</g>
		<path fill="#31CCB0" d="M243.235,353.351l-0.132,0.03c-2.447-18.362-1.34-18.914-1.34-18.914
			c-4.045-44.688-42.979-77.9-86.961-74.183c-43.984,3.717-76.363,42.957-72.319,87.644c0,0,0.216,8.335,2.388,50.446
			c-32.977,65.049-21.707,133.072,6.133,160.442c56.648,55.695,142.415,38.509,177.181-2.879
			C293.956,525.257,310.282,411.361,243.235,353.351z"/>
		<path fill="#88667C" d="M154.802,260.284"/>
		<g>
			<path fill="#31CCB0" d="M128.145,267.375c0,0,15.054-12.708,53.979-14.802c-10.064,3.057-16.28,11.388-16.28,11.388
				L128.145,267.375z"/>
			<path fill="#31CCB0" d="M104.627,343.688c0,0-15.934,21.191-38.659,13.225c16.042,0.986,14.72-10.592,18.567-16.425
				L104.627,343.688z"/>
			<path fill="#31CCB0" d="M100.984,366.381c0,0-24.307,10.173-40.161-8.229c13.477,8.994,18.028-1.654,24.25-4.727L100.984,366.381
				z"/>
			<g>
				<path fill="#31CCB0" d="M209.156,284.814c0,0,23.557,5.184,31.287-5.647c-1.608,10.523-17.125,14.819-17.125,14.819
					L209.156,284.814z"/>
				<path fill="#31CCB0" d="M207.729,283.64c0,0,21.15,11.833,31.641,3.745c-4.525,9.583-20.642,9.153-20.642,9.153L207.729,283.64z
					"/>
			</g>
		</g>
		<g>
			<path fill="#35495D" d="M155.427,331.644c0.14,1.522-2.054,1.542-4.424,1.746c-2.37,0.202-3.903,0.052-4.044-1.47
				c-0.14-1.522,1.552-2.461,3.921-2.664C153.251,329.053,155.286,330.122,155.427,331.644z"/>
			<path fill="#35495D" d="M176.594,329.78c0,0.098-0.007,0.2-0.02,0.304c-0.185,1.574-1.588,2.974-3.202,2.996
				c-1.338,0.018-2.958-0.3-3.945-1.281c-2.776-2.756,2.295-4.644,4.479-4.384C175.281,327.578,176.594,328.324,176.594,329.78z"/>
		</g>
		<path fill="#31CCB0" d="M164.473,326.407c0,4.837,4.927,5.376-7.504,5.376c-12.432,0-22.508-3.921-22.508-8.758
			c0-4.837,10.076-8.758,22.508-8.758C169.399,314.267,164.473,321.57,164.473,326.407z"/>
		<path fill="#EF746D" d="M189.229,341.536c1.657,1.531-0.877,5.22-1.53,5.376c-1.963,0.469-12.533,2.547-10.598,1.126
			C185.104,342.161,187.209,339.667,189.229,341.536z"/>
		<path fill="#35495D" d="M180.15,349.248c-0.933,0-1.828-0.054-2.717-0.107c-1.523-0.094-2.961-0.178-4.525,0.006
			c-0.268,0.046-0.511-0.159-0.543-0.426c-0.032-0.268,0.159-0.511,0.427-0.543c1.651-0.198,3.202-0.103,4.7-0.013
			c3.359,0.208,6.83,0.412,11.994-2.551c0.236-0.133,0.534-0.052,0.668,0.18c0.134,0.234,0.053,0.532-0.182,0.667
			C185.93,348.781,182.889,349.248,180.15,349.248z"/>
	</g>
	<path fill="#2EBFA7" d="M66.449,504.237c69.986-10.618,91.047-47.63,95.944-69.581l-89.774-5.996
		C64.371,455.532,62.97,481.755,66.449,504.237z"/>
	<g>
		<path fill="#259E88" d="M156.223,441.356c-1.012,0-2.035-0.274-2.955-0.85c-2.617-1.634-3.414-5.083-1.779-7.698
			c10.227-16.36,13.188-29.922,8.806-40.31c-4.298-10.191-14.956-14.975-20.576-16.194c-3.015-0.655-4.929-3.63-4.274-6.645
			c0.654-3.017,3.631-4.933,6.646-4.275c9.595,2.083,22.817,9.296,28.502,22.771c5.88,13.936,2.64,30.951-9.625,50.576
			C159.905,440.427,158.085,441.356,156.223,441.356z"/>
		<path fill="#F7FFF7" d="M144.904,370.215c-1.531-0.805-4.84-1.117-6.295-0.123c-2.732,1.867,0.947,4.515,2.662,5.349
			c2.168,1.055,4.265,0.82,5.086-1.887C146.845,371.949,146.117,370.854,144.904,370.215z"/>
	</g>
	<g>
		<path fill="#3C485F" d="M153.174,346.198c0.209-1.417-0.77-2.734-2.188-2.943l-16.468-2.427c-1.417-0.209-2.734,0.77-2.944,2.187
			l-5.423,36.797c-0.208,1.417,0.771,2.734,2.187,2.943l16.469,2.427c1.417,0.209,2.735-0.77,2.943-2.188L153.174,346.198z"/>
		<circle fill="#F1F6F8" cx="135.236" cy="343.479" r="1.084"/>
	</g>
	<g>
		<path fill="#32D2B6" d="M59.988,376.894c0,0,21.641,2.782,27.346-2.94c-8.956,10.183-19.955,9.299-19.955,9.299L59.988,376.894z"
			/>
	</g>
	<g>
		<path fill="#32D2B6" d="M113.305,381.958c-3.939,0.852-25.331,0.34-33.68-0.762c-3.982-0.525-10.494-2.216-15.59-3.879
			c-4.996-1.63-9.678-4.37-14.875-5.301c-9.018-1.616-18.994,0.445-27.012,4.748c-17.207,9.235-25.887,29.735-20.617,48.522
			c6.173,21.996,27.678,30.737,48.076,35.126c22.098,4.754,44.419,7.132,67.025,5.743c13.26-0.814,25.781-3.825,35.318-13.626
			c8.297-8.526,12.867-20.413,12.066-32.314C162.347,395.352,137.695,376.681,113.305,381.958z"/>
	</g>
	<path fill="#32D2B6" d="M119.127,392.636c-1.672,0-3.338-0.656-4.582-1.961c-7.887-8.264-10.993-16.968-8.521-23.879
		c1.74-4.862,5.981-8.048,11.639-8.742c3.471-0.424,6.629,2.043,7.053,5.515c0.427,3.472-2.043,6.63-5.514,7.056
		c-0.826,0.101-1.18,0.326-1.229,0.379c-0.428,0.634-0.104,4.812,5.734,10.93c2.414,2.528,2.319,6.538-0.211,8.951
		C122.271,392.055,120.697,392.636,119.127,392.636z"/>
	<path fill="#3996D5" d="M120.291,368.598c2.941,0.343,8.416-1.198,10.125-3.679c3.213-4.664-4.294-6.625-7.545-6.901
		c-4.109-0.349-7.311,1.315-6.957,6.143C116.125,367.024,117.961,368.326,120.291,368.598z"/>
	<path fill="#32D2B6" d="M142.766,455.147c-2.425,0-4.705-1.491-5.592-3.899c-1.139-3.089,0.441-6.515,3.53-7.654
		c5.216-1.922,10.749-6.218,16.608-10.766c9.811-7.615,19.965-15.458,31.891-14.86c3.286,0.174,5.811,2.98,5.636,6.267
		c-0.173,3.286-2.987,5.764-6.265,5.637c-7.502-0.428-15.865,6.095-23.953,12.373c-6.316,4.903-12.85,9.973-19.795,12.534
		C144.146,455.028,143.451,455.147,142.766,455.147z"/>
	<path fill="#3996D5" d="M190.604,419.068c-1.705,1.281-2.746,4.905-1.113,7.176c3.072,4.268,9.98,1.262,11.764-0.211
		c2.256-1.864,4.184-3.308-0.708-5.88C197.645,418.627,191.953,418.055,190.604,419.068z"/>
	<path fill="#32D2B6" d="M151.614,405.43c-3.029,0-5.709-2.182-6.233-5.271c-0.588-3.447,1.73-6.718,5.178-7.305
		c1.951-0.332,4.857-3.523,5.91-7.57c0.585-2.251,0.777-5.339-1.627-7.273c-2.725-2.192-3.156-6.178-0.965-8.903
		s6.178-3.159,8.903-0.966c5.815,4.679,8.038,12.278,5.945,20.329c-2.263,8.708-8.86,15.644-16.04,16.868
		C152.326,405.4,151.967,405.43,151.614,405.43z"/>
	<path fill="#3996D5" d="M161.037,365.382c-2.336-1.732-7.75-3.102-10.419-1.828c-5.017,2.396,0.409,7.741,3.041,9.567
		c3.327,2.31,6.864,2.461,8.928-1.82C163.811,368.762,162.885,366.754,161.037,365.382z"/>
	<g>
		<path fill="#32D2B6" d="M59.355,440.388c0,0,20.656,33.55,42.148,30.332c-14.183,10.059-36.842-3.288-36.842-3.288L59.355,440.388
			z"/>
		<path fill="#32D2B6" d="M41.14,431.479c0,0,28.089,44.17,49.497,47.308c-36.254-2.88-79.371-38.116-79.371-38.116L41.14,431.479z"
			/>
	</g>
	<path fill="#3996D5" d="M287.031,550.47c-0.668-1.485-3.105-3.258-4.966-2.901c-3.495,0.672-2.353,6.024-1.558,7.618
		c1.003,2.017,1.755,3.695,4.303,1.337C286.322,555.125,287.559,551.646,287.031,550.47z"/>
	<path fill="#3996D5" d="M330.703,536.126c-0.38-1.584-2.447-3.779-4.341-3.773c-3.559,0.012-3.429,5.482-2.944,7.196
		c0.611,2.168,1.039,3.956,3.98,2.112C329.143,540.568,331.004,537.38,330.703,536.126z"/>
	<path fill="#3996D5" d="M300.818,552.277c-1.146-1.798-4.681-3.112-7.069-1.656c-4.489,2.738-2.019,9.855-0.684,11.746
		c1.687,2.391,2.98,4.423,5.917-0.259C300.723,559.331,301.728,553.7,300.818,552.277z"/>
	<path fill="#3996D5" d="M313.88,549.805c-1.716-1.268-5.487-1.225-7.194,0.991c-3.209,4.165,1.65,9.922,3.573,11.209
		c2.433,1.627,4.369,3.059,5.431-2.364C316.32,556.424,315.237,550.808,313.88,549.805z"/>
	<path opacity="0.45" fill="#FFFFFF" d="M127.39,273.182c0-0.495-0.401-1.5-0.897-1.5h-2.701v-8.254
		c0-0.496-0.394-0.746-0.889-0.746h-2.691c-0.496,0-0.898,1.004-0.898,1.5c0,0.495,0.402,1.5,0.898,1.5h1.58v6h-2.479
		c-0.494,0-0.896,1.005-0.896,1.5s0.402,1.5,0.896,1.5h7.18C126.988,274.682,127.39,273.677,127.39,273.182z"/>
	<path opacity="0.4" fill="#FFFFFF" d="M116.623,219.681c0-0.872-0.707-2-1.58-2h-4.252v-15.344c0-0.872-1.193-1.656-2.066-1.656
		h-4.739c-0.872,0-1.579,1.127-1.579,2c0,0.872,0.707,2,1.579,2h2.806v13h-4.385c-0.872,0-1.58,1.127-1.58,2c0,0.873,0.708,2,1.58,2
		h12.637C115.916,221.682,116.623,220.554,116.623,219.681z"/>
	<path opacity="0.35" fill="#FFFFFF" d="M122.791,165.04c0-0.75-0.608-1.358-1.358-1.358h-7.283c-0.75,0-1.358,0.608-1.358,1.358
		v15.284c0,0.75,0.608,1.358,1.358,1.358h7.283c0.75,0,1.358-0.608,1.358-1.358V165.04z M118.791,178.682h-4v-12h4V178.682z"/>
	<path opacity="0.4" fill="#FFFFFF" d="M145.262,226.181c0-0.802-0.65-1.5-1.451-1.5h-3.02V211.24c0-0.802-1.988-2.558-2.79-2.558
		h-4.354c-0.802,0-1.452,2.198-1.452,3s0.65,3,1.452,3h4.145v10h-5.597c-0.802,0-1.452,0.698-1.452,1.5s0.65,1.5,1.452,1.5h11.616
		C144.611,227.682,145.262,226.983,145.262,226.181z"/>
	<path opacity="0.3" fill="#FFFFFF" d="M124.742,145.181c0-0.682-0.553-0.5-1.234-0.5h-3.717v-13.538
		c0-0.681-0.539-2.462-1.219-2.462h-3.701c-0.683,0-1.234,1.818-1.234,2.5s0.552,2.5,1.234,2.5h1.92v11h-3.154
		c-0.682,0-1.234-0.182-1.234,0.5c0,0.682,0.553,0.5,1.234,0.5h9.871C124.189,145.682,124.742,145.863,124.742,145.181z"/>
	<path opacity="0.45" fill="#FFFFFF" d="M139.791,241.909c0-0.678-0.549-1.228-1.227-1.228h-6.547c-0.678,0-1.227,0.55-1.227,1.228
		v14.545c0,0.678,0.549,1.228,1.227,1.228h6.547c0.678,0,1.227-0.55,1.227-1.228V241.909z M139.791,252.682h-6v-11h6V252.682z"/>
	<path opacity="0.5" fill="#FFFFFF" d="M135.838,306.682c0-0.298-0.242-1-0.539-1h-1.508v-4.887c0-0.298-0.352-1.113-0.648-1.113
		h-1.618c-0.298,0-0.539,0.703-0.539,1c0,0.298,0.241,1,0.539,1h1.267v4h-1.806c-0.298,0-0.54,0.702-0.54,1c0,0.297,0.242,1,0.54,1
		h4.313C135.596,307.682,135.838,306.979,135.838,306.682z"/>
	<path opacity="0.25" fill="#FFFFFF" d="M77.791,97.75c0-0.59-0.479-1.068-1.068-1.068h-5.863c-0.59,0-1.068,0.479-1.068,1.068
		v11.863c0,0.59,0.479,1.068,1.068,1.068h5.863c0.59,0,1.068-0.479,1.068-1.068V97.75z M76.791,107.682h-4v-9h4V107.682z"/>
	<path opacity="0.1" fill="#FFFFFF" d="M77.207,31.182c0-0.3-0.244-0.5-0.543-0.5h-1.873v-4.88c0-0.299,0.002-1.12-0.298-1.12
		h-1.629c-0.3,0-0.542,0.7-0.542,1s0.242,1,0.542,1h-0.073v4h-0.469c-0.301,0-0.544,0.2-0.544,0.5s0.243,0.5,0.544,0.5h4.342
		C76.963,31.682,77.207,31.482,77.207,31.182z"/>
	<path opacity="0.15" fill="#FFFFFF" d="M96.404,45.861c-0.066-0.314-0.375-0.515-0.689-0.449l-3.41,0.718
		c-0.313,0.066-0.516,0.375-0.449,0.688l1.312,6.224c0.066,0.314,0.374,0.516,0.688,0.45l3.409-0.718
		c0.314-0.067,0.516-0.375,0.449-0.689L96.404,45.861z M96.57,52.017l-1.949,0.411l-1.096-5.197l1.949-0.411L96.57,52.017z"/>
	<path opacity="0.25" fill="#FFFFFF" d="M99.791,106.949c0-0.546-0.41-1.268-0.954-1.268h-5.322c-0.544,0-0.724,0.722-0.724,1.268
		v10.53c0,0.546,0.18,1.202,0.724,1.202h5.322c0.544,0,0.954-0.656,0.954-1.202V106.949z M97.791,117.682h-3v-9h3V117.682z"/>
	<path opacity="0.35" fill="#FFFFFF" d="M102.775,183.182c0-0.883-0.715-1.5-1.598-1.5h-5.387v-15.375
		c0-0.882-0.123-0.625-1.006-0.625h-4.793c-0.882,0-1.598,1.118-1.598,2c0,0.883,0.716,2,1.598,2h3.799v12h-5.396
		c-0.883,0-1.598,0.617-1.598,1.5c0,0.882,0.715,1.5,1.598,1.5h12.783C102.061,184.682,102.775,184.063,102.775,183.182z"/>
	<path opacity="0.2" fill="#FFFFFF" d="M84.709,73.622c0.075-0.424-0.186-0.957-0.609-1.032l-2.156-0.382l1.318-7.439
		c0.075-0.424-0.346-0.895-0.771-0.97l-2.303-0.408c-0.424-0.075-0.852,0.336-0.928,0.76c-0.074,0.424,0.187,0.957,0.609,1.033
		l1.427,0.253L80.15,71.89l-2.191-0.389c-0.425-0.075-0.852,0.336-0.928,0.761c-0.075,0.424,0.186,0.957,0.609,1.032l6.143,1.089
		C84.206,74.457,84.633,74.046,84.709,73.622z"/>
	<path opacity="0.1" fill="#FFFFFF" d="M91.621,34.181c0-0.236-0.192-0.5-0.43-0.5h-0.4v-3.589c0-0.236-1.077-0.411-1.313-0.411
		h-1.286c-0.237,0-0.43,0-0.43,0s0.192,0,0.43,0h0.6v4h-1.029c-0.236,0-0.428,0.263-0.428,0.5c0,0.237,0.191,0.5,0.428,0.5h3.43
		C91.429,34.682,91.621,34.418,91.621,34.181z"/>
	<path opacity="0.05" fill="#FFFFFF" d="M77.178,0.403c-0.073-0.287-0.365-0.46-0.65-0.387L73.49,0.788
		c-0.286,0.073-0.46,0.365-0.387,0.652l1.481,5.824c0.072,0.287,0.363,0.46,0.651,0.387l3.035-0.772
		c0.287-0.073,0.461-0.364,0.389-0.651L77.178,0.403z M77.66,5.893l-1.93,0.491l-1.2-4.718l1.932-0.491L77.66,5.893z"/>
	<path opacity="0.45" fill="#FFFFFF" d="M122.791,234.019c0-0.739-0.599-1.337-1.338-1.337h-7.324c-0.739,0-1.338,0.599-1.338,1.337
		v15.325c0,0.739,0.599,1.337,1.338,1.337h7.324c0.739,0,1.338-0.599,1.338-1.337V234.019z M119.791,247.682h-4v-11h4V247.682z"/>
	<path opacity="0.35" fill="#FFFFFF" d="M140.791,179.076c0-0.771-0.624-1.395-1.394-1.395h-8.213c-0.77,0-1.394,0.624-1.394,1.395
		v15.211c0,0.771,0.624,1.395,1.394,1.395h8.213c0.77,0,1.394-0.624,1.394-1.395V179.076z M137.791,193.682h-5v-13h5V193.682z"/>
	<path opacity="0.3" fill="#FFFFFF" d="M98.791,138.972c0-0.712-0.578-1.29-1.291-1.29h-6.418c-0.713,0-1.291,0.578-1.291,1.29
		v14.42c0,0.712,0.578,1.29,1.291,1.29H97.5c0.713,0,1.291-0.578,1.291-1.29V138.972z M97.791,151.682h-6v-11h6V151.682z"/>
	<path opacity="0.45" fill="#FFFFFF" d="M145.791,271.91c0-0.678-0.55-1.228-1.229-1.228h-6.543c-0.679,0-1.229,0.55-1.229,1.228
		v14.544c0,0.678,0.55,1.228,1.229,1.228h6.543c0.679,0,1.229-0.55,1.229-1.228V271.91z M143.791,283.682h-5v-10h5V283.682z"/>
	<path opacity="0.2" fill="#FFFFFF" d="M106.846,89.465c-0.102-0.408-0.546-0.776-0.954-0.674l-2.116,0.53l-1.793-7.165
		c-0.104-0.408-0.629-0.67-1.037-0.567l-2.219,0.555c-0.407,0.103-0.627,0.636-0.523,1.044c0.102,0.408,0.545,0.776,0.955,0.674
		l1.341-0.336l1.558,6.226l-2.082,0.521c-0.408,0.102-0.625,0.635-0.523,1.043c0.103,0.409,0.546,0.776,0.955,0.674l5.915-1.48
		C106.729,90.406,106.947,89.873,106.846,89.465z"/>
	<path opacity="0.15" fill="#FFFFFF" d="M113.166,58.744c0.075-0.414-0.199-0.811-0.613-0.886l-4.379-0.793
		c-0.414-0.076-0.812,0.2-0.886,0.614l-1.505,8.299c-0.074,0.414,0.2,0.811,0.614,0.886l4.379,0.794
		c0.414,0.075,0.812-0.2,0.886-0.615L113.166,58.744z M110.457,66.25l-2.83-0.513l1.223-6.75l2.83,0.513L110.457,66.25z"/>
	<path opacity="0.05" fill="#FFFFFF" d="M90.209,17.578c0.057-0.302-0.125-0.698-0.426-0.753l-1.618-0.295l0.969-5.303
		c0.054-0.302-0.161-0.624-0.462-0.678l-1.638-0.299c-0.302-0.055-0.61,0.252-0.665,0.553s0.125,0.698,0.426,0.752l0.898,0.165
		l-0.834,4.571l-1.443-0.263c-0.301-0.055-0.61,0.252-0.666,0.553c-0.053,0.302,0.125,0.698,0.427,0.752l4.367,0.797
		C89.846,18.187,90.154,17.879,90.209,17.578z"/>
	<path opacity="0.05" fill="#FFFFFF" d="M74.129,52.182c0-0.272-0.222-0.5-0.494-0.5h-0.844v-5.114c0-0.273-0.862-0.886-1.135-0.886
		h-1.484c-0.274,0-0.495,0.728-0.495,1c0,0.273,0.221,1,0.495,1h1.619v4h-2.114c-0.273,0-0.494,0.228-0.494,0.5
		c0,0.274,0.221,0.5,0.494,0.5h3.958C73.907,52.682,74.129,52.456,74.129,52.182z"/>
</g>
</svg>
